<?xml version="1.0" encoding="UTF-8"?>
<svg width="159px" height="256px" viewBox="0 0 159 256" version="1.1" xmlns="http://www.w3.org/2000/svg" xmlns:xlink="http://www.w3.org/1999/xlink">
    <!-- Generator: Sketch 53.2 (72643) - https://sketchapp.com -->
    <title>Logo 2_1</title>
    <desc>Created with Sketch.</desc>
    <g id="Logo-2_1" stroke="none" stroke-width="1" fill="none" fill-rule="evenodd">
        <polyline id="Fill-1" fill="#D2302B" points="70.091 117.03 70.091 117.593 70.521 118.635 70.921 119.034 71.319 119.433 71.84 119.649 72.361 119.864 73.489 119.864 74.01 119.649 74.531 119.433 75.328 118.635 75.544 118.115 75.76 117.593 75.76 0.809 69.936 0.809 37.916 110.487 5.896 0.809 0.072 0.809 0.072 117.309 0.127 117.583 0.182 117.856 0.289 118.115 0.396 118.373 0.551 118.604 0.705 118.837 0.903 119.034 1.101 119.231 1.333 119.386 1.564 119.542 2.08 119.756 2.354 119.81 2.628 119.864 3.472 119.864 3.992 119.649 4.513 119.433 4.912 119.034 5.311 118.635 5.526 118.115 5.742 117.593 5.742 19.563 35.082 119.864 40.751 119.864 70.091 19.563 70.091 117.03"></polyline>
        <polyline id="Stroke-2" stroke="#D2302B" stroke-width="0.144" stroke-linecap="round" stroke-linejoin="round" points="70.091 117.03 70.091 117.593 70.521 118.635 70.921 119.034 71.319 119.433 71.84 119.649 72.361 119.864 73.489 119.864 74.01 119.649 74.53 119.433 74.93 119.034 75.328 118.635 75.544 118.115 75.76 117.593 75.76 0.809 69.936 0.809 37.916 110.487 5.896 0.809 0.072 0.809 0.072 117.309 0.127 117.583 0.182 117.856 0.288 118.115 0.396 118.373 0.551 118.604 0.705 118.837 0.903 119.034 1.101 119.231 1.332 119.386 1.564 119.542 2.08 119.756 2.354 119.81 2.628 119.864 3.472 119.864 3.992 119.649 4.513 119.433 4.912 119.034 5.311 118.635 5.526 118.115 5.742 117.593 5.742 19.563 35.081 119.864 40.751 119.864 70.091 19.563 70.091 117.03"></polyline>
        <polyline id="Fill-4" fill="#D2302B" points="97.14 3.644 97.14 3.08 96.924 2.559 96.708 2.038 96.31 1.639 95.91 1.241 95.39 1.025 94.869 0.809 94.025 0.809 93.752 0.864 93.477 0.919 92.962 1.132 92.73 1.287 92.498 1.442 92.301 1.639 92.103 1.837 91.948 2.069 91.793 2.301 91.686 2.559 91.579 2.817 91.524 3.091 91.47 3.365 91.47 117.593 91.686 118.115 91.901 118.635 92.301 119.034 92.699 119.433 93.22 119.649 93.741 119.864 94.869 119.864 95.39 119.649 95.91 119.433 96.31 119.034 96.708 118.635 96.924 118.115 97.14 117.593 97.14 3.644"></polyline>
        <polyline id="Stroke-5" stroke="#D2302B" stroke-width="0.144" stroke-linecap="round" stroke-linejoin="round" points="97.14 3.644 97.14 3.08 96.708 2.039 95.91 1.241 95.39 1.025 94.868 0.809 94.025 0.809 93.752 0.864 93.477 0.919 92.962 1.132 92.729 1.287 92.498 1.442 92.301 1.639 92.103 1.837 91.947 2.069 91.793 2.301 91.686 2.559 91.579 2.817 91.524 3.091 91.47 3.365 91.47 117.593 91.686 118.115 91.901 118.635 92.301 119.034 92.699 119.433 93.22 119.649 93.741 119.864 94.868 119.864 95.39 119.649 95.91 119.433 96.309 119.034 96.708 118.635 96.924 118.115 97.14 117.593 97.14 3.644"></polyline>
        <polyline id="Fill-7" fill="#D2302B" points="138.798 6.478 156.542 6.478 157.584 6.047 157.982 5.648 158.381 5.25 158.598 4.729 158.813 4.208 158.813 3.365 158.759 3.091 158.704 2.817 158.598 2.559 158.49 2.301 158.18 1.837 157.982 1.639 157.785 1.442 157.321 1.132 156.805 0.919 156.531 0.864 156.258 0.809 115.385 0.809 114.343 1.241 113.944 1.639 113.546 2.038 113.33 2.559 113.114 3.08 113.114 4.208 113.33 4.729 113.546 5.25 113.944 5.648 114.343 6.047 115.385 6.478 133.129 6.478 133.129 117.593 133.345 118.115 133.561 118.635 134.357 119.433 134.879 119.649 135.399 119.864 136.527 119.864 137.049 119.649 137.569 119.433 137.968 119.034 138.366 118.635 138.582 118.115 138.798 117.593 138.798 6.478"></polyline>
        <polyline id="Stroke-8" stroke="#D2302B" stroke-width="0.144" stroke-linecap="round" stroke-linejoin="round" points="138.798 6.478 156.542 6.478 157.063 6.262 157.584 6.048 157.982 5.648 158.381 5.25 158.598 4.729 158.813 4.208 158.813 3.365 158.759 3.091 158.704 2.817 158.598 2.559 158.49 2.301 158.18 1.837 157.982 1.639 157.785 1.442 157.321 1.132 156.805 0.919 156.531 0.864 156.258 0.809 115.385 0.809 114.343 1.241 113.944 1.639 113.546 2.039 113.114 3.08 113.114 4.208 113.33 4.729 113.546 5.25 114.343 6.048 114.864 6.262 115.385 6.478 133.129 6.478 133.129 117.593 133.345 118.115 133.561 118.635 134.357 119.433 134.879 119.649 135.399 119.864 136.527 119.864 137.048 119.649 137.569 119.433 137.968 119.034 138.366 118.635 138.582 118.115 138.798 117.593 138.798 6.478"></polyline>
        <path d="M158.813,139.707 L158.813,139.143 L158.598,138.622 L158.381,138.101 L157.982,137.703 L157.584,137.303 L157.063,137.089 L156.542,136.873 L155.699,136.873 L155.426,136.926 L155.151,136.981 L154.894,137.089 L154.636,137.195 L154.403,137.35 L154.171,137.506 L153.974,137.703 L153.776,137.9 L153.621,138.133 L153.466,138.364 L153.359,138.622 L153.253,138.881 L153.198,139.154 L153.144,139.427 L153.144,233.078 C153.144,235.335 152.699,237.568 151.836,239.653 C150.973,241.737 149.707,243.631 148.111,245.226 C146.517,246.822 144.622,248.087 142.538,248.951 C140.454,249.814 138.22,250.258 135.964,250.258 C133.707,250.258 131.474,249.814 129.389,248.951 C127.305,248.087 125.411,246.822 123.815,245.226 C122.22,243.631 120.955,241.737 120.091,239.653 C119.228,237.568 118.783,235.335 118.783,233.078 L118.783,139.143 L118.567,138.622 L118.352,138.101 L117.953,137.703 L117.555,137.303 L117.033,137.089 L116.513,136.873 L115.385,136.873 L114.864,137.089 L114.343,137.303 L113.944,137.703 L113.546,138.101 L113.114,139.143 L113.114,233.078 C113.114,236.079 113.705,239.05 114.854,241.822 C116.002,244.594 117.685,247.113 119.807,249.235 C121.929,251.357 124.447,253.04 127.22,254.188 C129.991,255.337 132.963,255.927 135.964,255.927 C138.964,255.927 141.936,255.337 144.708,254.188 C147.479,253.04 149.999,251.357 152.12,249.235 C154.242,247.113 155.926,244.594 157.073,241.822 C158.222,239.05 158.813,236.079 158.813,233.078 L158.813,139.707" id="Fill-10" fill="#D2302B"></path>
        <path d="M158.813,139.707 L158.813,139.143 L158.598,138.622 L158.381,138.101 L157.982,137.703 L157.584,137.303 L157.063,137.089 L156.542,136.872 L155.699,136.872 L155.425,136.926 L155.151,136.981 L154.894,137.089 L154.636,137.195 L154.403,137.35 L154.171,137.506 L153.974,137.703 L153.776,137.9 L153.466,138.364 L153.359,138.622 L153.252,138.881 L153.144,139.427 L153.144,233.078 C153.144,235.335 152.699,237.568 151.836,239.653 C150.973,241.737 149.707,243.632 148.111,245.226 C146.517,246.822 144.622,248.087 142.538,248.95 C140.454,249.813 138.22,250.258 135.964,250.258 C133.707,250.258 131.474,249.813 129.389,248.95 C127.305,248.087 125.411,246.822 123.815,245.226 C122.22,243.632 120.955,241.737 120.091,239.653 C119.228,237.568 118.783,235.335 118.783,233.078 L118.783,139.143 L118.567,138.622 L118.352,138.101 L117.953,137.703 L117.555,137.303 L117.033,137.089 L116.513,136.872 L115.385,136.872 L114.864,137.089 L114.343,137.303 L113.944,137.703 L113.546,138.101 L113.114,139.143 L113.114,233.078 C113.114,236.079 113.705,239.05 114.854,241.822 C116.002,244.594 117.685,247.113 119.807,249.235 C121.929,251.357 124.447,253.04 127.22,254.188 C129.991,255.337 132.963,255.927 135.964,255.927 C138.964,255.927 141.936,255.337 144.708,254.188 C147.479,253.04 149.999,251.357 152.12,249.235 C154.242,247.113 155.925,244.594 157.073,241.822 C158.222,239.05 158.813,236.079 158.813,233.078 L158.813,139.707" id="Stroke-11" stroke="#D2302B" stroke-width="0.144" stroke-linecap="round" stroke-linejoin="round"></path>
        <path d="M50.407,242.675 L49.633,243.777 L48.765,244.809 L47.897,245.841 L46.944,246.795 L45.991,247.748 L44.959,248.616 L43.927,249.483 L42.823,250.258 C41.52,251.174 40.149,251.988 38.723,252.694 C37.295,253.4 35.815,253.996 34.297,254.476 C32.779,254.957 31.226,255.32 29.652,255.562 C28.078,255.805 26.488,255.927 24.895,255.927 L0.072,255.927 L0.072,136.873 L24.895,136.873 C28.428,136.873 31.934,137.472 35.265,138.647 C38.596,139.821 41.702,141.553 44.453,143.768 C47.204,145.983 49.559,148.65 51.416,151.654 C53.273,154.658 54.607,157.955 55.36,161.406 C56.113,164.856 56.274,168.41 55.837,171.914 C55.399,175.419 54.37,178.824 52.792,181.983 C51.215,185.143 49.111,188.012 46.572,190.467 C44.034,192.923 41.097,194.928 37.886,196.4 C39.959,197.35 41.922,198.525 43.739,199.903 C45.556,201.281 47.217,202.854 48.69,204.595 C50.164,206.336 51.443,208.232 52.503,210.252 C53.563,212.271 54.398,214.4 54.994,216.601 C55.59,218.803 55.942,221.063 56.045,223.341 C56.148,225.62 56,227.903 55.605,230.149 C55.21,232.395 54.569,234.591 53.695,236.698 C52.821,238.804 51.719,240.808 50.407,242.675 M5.742,193.565 L24.895,193.565 C28.246,193.565 31.563,192.905 34.659,191.623 C37.754,190.341 40.566,188.462 42.935,186.093 C45.305,183.724 47.184,180.912 48.466,177.816 C49.748,174.721 50.407,171.404 50.407,168.053 C50.407,164.703 49.748,161.385 48.466,158.291 C47.184,155.195 45.305,152.383 42.935,150.013 C40.566,147.645 37.754,145.765 34.659,144.483 C31.563,143.202 28.246,142.542 24.895,142.542 L5.742,142.542 L5.742,193.565 M5.742,250.258 L24.895,250.258 C28.246,250.258 31.563,249.598 34.659,248.316 C37.754,247.034 40.566,245.155 42.935,242.786 C45.305,240.417 47.184,237.604 48.466,234.509 C49.748,231.414 50.407,228.096 50.407,224.747 C50.407,221.396 49.748,218.079 48.466,214.983 C47.184,211.888 45.305,209.076 42.935,206.707 C40.566,204.338 37.754,202.459 34.659,201.176 C31.563,199.894 28.246,199.234 24.895,199.234 L5.742,199.234 L5.742,250.258" id="Fill-13" fill="#D2302B"></path>
        <path d="M50.407,242.675 L49.633,243.777 L48.765,244.809 L47.897,245.841 L46.944,246.795 L45.991,247.748 L44.959,248.616 L43.927,249.483 L42.823,250.258 C41.52,251.174 40.149,251.988 38.723,252.694 C37.295,253.4 35.815,253.996 34.297,254.476 C32.779,254.957 31.227,255.319 29.652,255.562 C28.078,255.805 26.488,255.927 24.895,255.927 L0.072,255.927 L0.072,136.872 L24.895,136.872 C28.428,136.872 31.934,137.472 35.265,138.647 C38.596,139.821 41.702,141.553 44.453,143.768 C47.204,145.983 49.559,148.65 51.416,151.654 C53.273,154.658 54.606,157.955 55.36,161.406 C56.113,164.856 56.274,168.41 55.837,171.915 C55.399,175.419 54.37,178.824 52.792,181.983 C51.215,185.143 49.111,188.012 46.572,190.467 C44.034,192.923 41.097,194.928 37.886,196.4 C39.959,197.35 41.922,198.525 43.739,199.903 C45.556,201.281 47.217,202.854 48.69,204.595 C50.164,206.336 51.442,208.232 52.503,210.252 C53.563,212.27 54.398,214.4 54.994,216.602 C55.59,218.803 55.942,221.063 56.045,223.341 C56.147,225.62 56,227.903 55.605,230.149 C55.21,232.395 54.569,234.591 53.695,236.697 C52.821,238.803 51.719,240.808 50.407,242.675 M5.742,193.565 L24.895,193.565 C28.246,193.565 31.563,192.905 34.659,191.624 C37.754,190.341 40.566,188.462 42.935,186.092 C45.305,183.724 47.184,180.912 48.466,177.816 C49.748,174.721 50.407,171.404 50.407,168.053 C50.407,164.703 49.748,161.385 48.466,158.291 C47.184,155.195 45.305,152.383 42.935,150.013 C40.566,147.645 37.754,145.765 34.659,144.484 C31.563,143.202 28.246,142.542 24.895,142.542 L5.742,142.542 L5.742,193.565 M5.742,250.258 L24.895,250.258 C28.246,250.258 31.563,249.598 34.659,248.316 C37.754,247.034 40.566,245.155 42.935,242.786 C45.305,240.417 47.184,237.604 48.466,234.509 C49.748,231.414 50.407,228.096 50.407,224.747 C50.407,221.396 49.748,218.079 48.466,214.983 C47.184,211.888 45.305,209.076 42.935,206.707 C40.566,204.338 37.754,202.459 34.659,201.176 C31.563,199.894 28.246,199.235 24.895,199.235 L5.742,199.235 L5.742,250.258" id="Stroke-14" stroke="#D2302B" stroke-width="0.144" stroke-linecap="round" stroke-linejoin="round"></path>
        <path d="M80.78,136.873 L86.449,136.873 L112.134,255.927 L106.334,255.927 L102.628,238.748 L64.602,238.748 L60.896,255.927 L55.097,255.927 L80.78,136.873 M83.615,150.617 L65.825,233.078 L101.404,233.078 L83.615,150.617" id="Fill-16" fill="#D2302B"></path>
        <path d="M80.78,136.872 L86.449,136.872 L112.134,255.927 L106.334,255.927 L102.628,238.747 L64.602,238.747 L60.896,255.927 L55.097,255.927 L80.78,136.872 M83.615,150.617 L65.825,233.078 L101.404,233.078 L83.615,150.617 M133.205,6.494 L114.484,6.494" id="Stroke-17" stroke="#D2302B" stroke-width="0.144" stroke-linecap="round" stroke-linejoin="round"></path>
    </g>
</svg>